<svg xmlns="http://www.w3.org/2000/svg" width="440" height="280" viewBox="0 0 440 280">
  <defs>
    <linearGradient id="bg" x1="42" y1="26" x2="392" y2="260" gradientUnits="userSpaceOnUse">
      <stop stop-color="#182634"/>
      <stop offset="1" stop-color="#0E151C"/>
    </linearGradient>
    <linearGradient id="blue" x1="161" y1="65" x2="280" y2="214" gradientUnits="userSpaceOnUse">
      <stop stop-color="#62AEFF"/>
      <stop offset="1" stop-color="#2388F5"/>
    </linearGradient>
    <filter id="shadow" x="120" y="42" width="200" height="210" filterUnits="userSpaceOnUse">
      <feDropShadow dx="0" dy="18" stdDeviation="16" flood-color="#000" flood-opacity=".28"/>
    </filter>
  </defs>
  <rect width="440" height="280" rx="28" fill="url(#bg)"/>
  <g opacity=".34">
    <rect x="42" y="44" width="80" height="18" rx="9" fill="#547088"/>
    <rect x="318" y="218" width="80" height="18" rx="9" fill="#547088"/>
    <rect x="42" y="218" width="52" height="18" rx="9" fill="#547088"/>
    <rect x="346" y="44" width="52" height="18" rx="9" fill="#547088"/>
  </g>
  <g filter="url(#shadow)">
    <rect x="146" y="54" width="148" height="172" rx="38" fill="url(#blue)"/>
    <path d="M220 91v67m-30-28 30 30 30-30M184 190h72" fill="none" stroke="#fff" stroke-width="12" stroke-linecap="round" stroke-linejoin="round"/>
  </g>
  <g fill="#62AEFF" opacity=".62">
    <rect x="102" y="104" width="18" height="72" rx="9"/>
    <rect x="74" y="124" width="18" height="52" rx="9"/>
    <rect x="320" y="92" width="18" height="84" rx="9"/>
    <rect x="348" y="118" width="18" height="58" rx="9"/>
  </g>
</svg>
